<svg fill="#ffffff" height="26px" width="26px" version="1.2" baseProfile="tiny" id="Layer_1" xmlns="http://www.w3.org/2000/svg" xmlns:xlink="http://www.w3.org/1999/xlink" viewBox="-1025 994 256 256" xml:space="preserve" stroke="#ffffff"><g id="SVGRepo_bgCarrier" stroke-width="0"></g><g id="SVGRepo_tracerCarrier" stroke-linecap="round" stroke-linejoin="round"></g><g id="SVGRepo_iconCarrier"> <path d="M-887.8,994c-44.8,0-86.1,33.6-94.7,70.6c-1.9,8.3-4.1,29.8-4.1,29.8l-20.5,54.1c-0.4,1-0.6,1.9-0.6,3.1c0,4.4,3.5,8,8,8 h13.2v27.6c0,21.5,17.4,38.9,38.9,38.9h15.5v24h105.3v-79.7c23-18.1,37.7-46.1,37.7-77.6C-789.1,1038.2-833.3,994-887.8,994z M-962.8,1112.6c-5.9,0-10.8-4.9-10.8-10.9c0-5.9,4.9-10.8,10.8-10.8c6.1,0,10.9,4.9,10.9,10.8 C-951.8,1107.7-956.7,1112.6-962.8,1112.6z M-825.5,1146.5c0,0,3.9-44.9-49.1-44.9c-76.3-1.7-75.3-68.9-75.3-68.9 c15.4-16.4,37.2-26.7,61.5-26.7c46.5,0,84.3,37.7,84.3,84.3C-804,1111.9-812.2,1131.5-825.5,1146.5z"></path> </g></svg>